<svg width="1000" height="1000" viewBox="0 0 1000 1000" fill="none" xmlns="http://www.w3.org/2000/svg">
    <rect width="1000" height="1000" fill="#000E40" fill-opacity="0.7" />
    <g clip-path="url(#clip0)">
        <path
            d="M127.553 372.455H203.743L268.373 530.054H271.356L335.987 372.455H412.177V627H352.269V470.643H350.156L289.005 625.384H250.724L189.574 469.773H187.461V627H127.553V372.455ZM450.054 627V582.753L542.898 501.467C549.859 495.17 555.783 489.411 560.672 484.191C565.561 478.888 569.289 473.585 571.858 468.282C574.427 462.896 575.711 457.054 575.711 450.757C575.711 443.714 574.178 437.707 571.112 432.735C568.046 427.681 563.82 423.786 558.435 421.052C553.049 418.317 546.876 416.95 539.915 416.95C532.872 416.95 526.699 418.4 521.396 421.3C516.093 424.118 511.95 428.219 508.967 433.605C506.067 438.991 504.617 445.537 504.617 453.243H446.325C446.325 435.925 450.22 420.969 458.008 408.374C465.797 395.78 476.735 386.085 490.821 379.29C504.99 372.413 521.438 368.974 540.164 368.974C559.47 368.974 576.249 372.206 590.501 378.669C604.753 385.132 615.774 394.164 623.562 405.764C631.434 417.282 635.37 430.664 635.37 445.91C635.37 455.604 633.423 465.216 629.528 474.745C625.634 484.274 618.632 494.797 608.523 506.315C598.497 517.832 584.245 531.628 565.768 547.703L535.317 575.793V577.408H638.477V627H450.054ZM672.874 627V591.95L796.543 422.419H672.999V372.455H874.348V407.504L750.68 577.036H874.224V627H672.874Z"
            fill="white" />
        <path
            d="M120.553 366.455H196.743L261.373 524.054H264.356L328.987 366.455H405.177V621H345.269V464.643H343.156L282.005 619.384H243.724L182.574 463.773H180.461V621H120.553V366.455ZM443.054 621V576.753L535.898 495.467C542.859 489.17 548.783 483.411 553.672 478.191C558.561 472.888 562.289 467.585 564.858 462.282C567.427 456.896 568.711 451.054 568.711 444.757C568.711 437.714 567.178 431.707 564.112 426.735C561.046 421.681 556.82 417.786 551.435 415.052C546.049 412.317 539.876 410.95 532.915 410.95C525.872 410.95 519.699 412.4 514.396 415.3C509.093 418.118 504.95 422.219 501.967 427.605C499.067 432.991 497.617 439.537 497.617 447.243H439.325C439.325 429.925 443.22 414.969 451.008 402.374C458.797 389.78 469.735 380.085 483.821 373.29C497.99 366.413 514.438 362.974 533.164 362.974C552.47 362.974 569.249 366.206 583.501 372.669C597.753 379.132 608.774 388.164 616.562 399.764C624.434 411.282 628.37 424.664 628.37 439.91C628.37 449.604 626.423 459.216 622.528 468.745C618.634 478.274 611.632 488.797 601.523 500.315C591.497 511.832 577.245 525.628 558.768 541.703L528.317 569.793V571.408H631.477V621H443.054ZM665.874 621V585.95L789.543 416.419H665.999V366.455H867.348V401.504L743.68 571.036H867.224V621H665.874Z"
            fill="white" fill-opacity="0.5" />
        <path
            d="M111.553 358.455H187.743L252.373 516.054H255.356L319.987 358.455H396.177V613H336.269V456.643H334.156L273.005 611.384H234.724L173.574 455.773H171.461V613H111.553V358.455ZM434.054 613V568.753L526.898 487.467C533.859 481.17 539.783 475.411 544.672 470.191C549.561 464.888 553.289 459.585 555.858 454.282C558.427 448.896 559.711 443.054 559.711 436.757C559.711 429.714 558.178 423.707 555.112 418.735C552.046 413.681 547.82 409.786 542.435 407.052C537.049 404.317 530.876 402.95 523.915 402.95C516.872 402.95 510.699 404.4 505.396 407.3C500.093 410.118 495.95 414.219 492.967 419.605C490.067 424.991 488.617 431.537 488.617 439.243H430.325C430.325 421.925 434.22 406.969 442.008 394.374C449.797 381.78 460.735 372.085 474.821 365.29C488.99 358.413 505.438 354.974 524.164 354.974C543.47 354.974 560.249 358.206 574.501 364.669C588.753 371.132 599.774 380.164 607.562 391.764C615.434 403.282 619.37 416.664 619.37 431.91C619.37 441.604 617.423 451.216 613.528 460.745C609.634 470.274 602.632 480.797 592.523 492.315C582.497 503.832 568.245 517.628 549.768 533.703L519.317 561.793V563.408H622.477V613H434.054ZM656.874 613V577.95L780.543 408.419H656.999V358.455H858.348V393.504L734.68 563.036H858.224V613H656.874Z"
            fill="white" fill-opacity="0.25" />
    </g>
    <defs>
        <clipPath id="clip0">
            <rect width="788" height="347" fill="white" transform="translate(110 321)" />
        </clipPath>
    </defs>
</svg>