<svg id="Ebene_1" data-name="Ebene 1" xmlns="http://www.w3.org/2000/svg" xmlns:xlink="http://www.w3.org/1999/xlink"
    viewBox="0 0 443.4 907.6">
    <defs>
        <style>
            .cls-1,
            .cls-3,
            .cls-6 {
                fill: none;
            }

            .cls-2 {
                fill: #fff;
            }

            .cls-3 {
                stroke: #f7f7f7;
                stroke-width: 4px;
            }

            .cls-3,
            .cls-6 {
                stroke-miterlimit: 10;
            }

            .cls-4 {
                clip-path: url(#clip-path);
            }

            .cls-5 {
                isolation: isolate;
            }

            .cls-6 {
                stroke: #e7eaf3;
            }

            .cls-7 {
                fill: #f7f7f7;
            }
        </style>
        <clipPath id="clip-path">
            <path class="cls-1"
                d="M333.4,30.4h0a7.37,7.37,0,0,1,7.2-7.5H376c26.9,0,48.8,22.7,48.8,50.7V838.8c0,28-21.8,50.7-48.8,50.7H67.4c-26.9,0-48.8-22.7-48.8-50.7V73.6c0-28,21.8-50.7,48.8-50.7h35.3a7.37,7.37,0,0,1,7.2,7.5h0c0,14.9,11.6,27,26,27H307.4C321.8,57.5,333.4,45.4,333.4,30.4Z" />
        </clipPath>
    </defs>
    <path class="cls-2"
        d="M378.3,0H65.1A65,65,0,0,0,0,65.1V842.5a65.1,65.1,0,0,0,65.1,65.1H378.3a65.1,65.1,0,0,0,65.1-65.1V65.1A65.1,65.1,0,0,0,378.3,0Z" />
    <path class="cls-3"
        d="M242.8,36.8H196.4a3.59,3.59,0,0,1-3.6-3.6h0a3.59,3.59,0,0,1,3.6-3.6h46.4a3.59,3.59,0,0,1,3.6,3.6h0A3.59,3.59,0,0,1,242.8,36.8Z" />
    <circle class="cls-3" cx="269.5" cy="33.2" r="5.5" />
    <g class="cls-4">
        <image id="SVGiphoneX1Img1" class="cls-5" width="407" height="867" transform="translate(18.19 22.71)"
            xlink:href="iphone-bg.png" />
    </g>
    <path id="iphoneXID_1" data-name="iphoneXID 1" class="cls-6"
        d="M333.4,30.4h0a7.37,7.37,0,0,1,7.2-7.5H376c26.9,0,48.8,22.7,48.8,50.7V838.8c0,28-21.8,50.7-48.8,50.7H67.4c-26.9,0-48.8-22.7-48.8-50.7V73.6c0-28,21.8-50.7,48.8-50.7h35.3a7.37,7.37,0,0,1,7.2,7.5h0c0,14.9,11.6,27,26,27H307.4C321.8,57.5,333.4,45.4,333.4,30.4Z" />
    <path class="cls-7"
        d="M285.2,879.8h-127a2.65,2.65,0,0,1-2.6-2.6h0a2.65,2.65,0,0,1,2.6-2.6h127a2.65,2.65,0,0,1,2.6,2.6h0A2.58,2.58,0,0,1,285.2,879.8Z" />
</svg>