<svg width="16" height="26" viewBox="0 0 16 26" fill="none" xmlns="http://www.w3.org/2000/svg">
    <path d="M4 5H13V13H4V11H1V7H4V5Z" fill="#F0D0B0" />
    <path d="M14 16H3V20H14V16Z" fill="#F0D0B0" />
    <path d="M10 1H7V2H5V3H4V4H3V6H4V5H6V4H7V3H11V2H10V1Z" fill="#FFA347" />
    <path d="M15 1H12V3H13V4H14V5H15V1Z" fill="#FFA347" />
    <path d="M15 6H13V8H14V10H15V6Z" fill="#FFA347" />
    <path d="M14 11H13V12H12V14H13V13H14V11Z" fill="#FFA347" />
    <path d="M11 14V15H12V16H13V18H11V17H10V16H9V14H11Z" fill="#FFA347" />
    <path d="M15 23H14V24H12V20H13V19H15V23Z" fill="#FFA347" />
    <path d="M1 22H2V20H4V21H3V25H1V22Z" fill="#FFA347" />
    <path d="M6 13H3V14H2V15H1V18H2V17H3V16H4V15H7V16H8V15H7V14H6V13Z" fill="#FFA347" />
    <path d="M4 16H3V17H4V16Z" fill="#F83800" />
    <path d="M4 16V15H7V16H4Z" fill="#F83800" />
    <path d="M10 6H11V8H10V6Z" fill="#F83800" />
    <path d="M9 6H8V8H9V6Z" fill="#F83800" />
    <path d="M13 18V20H12V24H14V23H15V19H14V18H13Z" fill="#F83800" />
    <path fill-rule="evenodd" clip-rule="evenodd"
        d="M11 0H7V1H5V2H4V3H3V4H2V6H1V8H0V10H1V11H2V12H3V13H2V14H1V15H0V18H1V19H2V20H1V21H0V25H1V26H3V25H5V24H8V23H11V24H12V25H15V24H16V19H15V17H14V15H13V14H14V13H15V10H16V6H15V5H16V1H15V0H12V1H11V0ZM13 4V3H12V1H15V5H14V4H13ZM7 4H6V5H4V6H3V4H4V3H5V2H7V1H10V2H11V3H7V4ZM12 5H6V6H5V8H6V9H5V10H4V9H3V7H2V8H1V10H2V11H4V12H6V13H3V14H2V15H1V18H2V17H3V19H4V20H2V22H1V25H3V21H4V20H7V19H8V17H7V16H8V15H7V14H6V13H11V12H8V11H6V10H7V9H8V10H10V11H12V10H13V8H14V10H15V6H13V8H12V5ZM14 13V11H13V12H12V14H13V13H14ZM11 18H13V16H12V15H11V14H9V16H10V17H11V18ZM11 18H9V20H11V18Z"
        fill="#F83800" />
</svg>