<svg width="341" height="655" viewBox="0 0 341 655" fill="none" xmlns="http://www.w3.org/2000/svg">
	<g clip-path="url(#clip0)" filter="url(#filter0_d)">
		<path
			d="M276.507 11H64.969C40.6544 11 21 30.6544 21 54.969V580.031C21 604.278 40.6544 624 64.969 624H276.507C300.754 624 320.476 604.346 320.476 580.031V54.969C320.476 30.6544 300.754 11 276.507 11Z"
			fill="white" />
		<path
			d="M184.989 35.855H153.65C152.299 35.855 151.219 34.7743 151.219 33.4235C151.219 32.0727 152.299 30.992 153.65 30.992H184.989C186.34 30.992 187.421 32.0727 187.421 33.4235C187.421 34.7743 186.34 35.855 184.989 35.855Z"
			stroke="#9FB4FF" stroke-width="2.70163" stroke-miterlimit="10" />
		<path
			d="M203.022 37.1383C205.074 37.1383 206.737 35.4751 206.737 33.4235C206.737 31.3719 205.074 29.7088 203.022 29.7088C200.971 29.7088 199.308 31.3719 199.308 33.4235C199.308 35.4751 200.971 37.1383 203.022 37.1383Z"
			stroke="#9FB4FF" stroke-width="2.70163" stroke-miterlimit="10" />
		<path
			d="M246.181 31.5324C246.181 28.7632 248.342 26.4668 251.044 26.4668H274.953C293.122 26.4668 307.913 41.7986 307.913 60.71V577.532C307.913 596.443 293.189 611.775 274.953 611.775H66.5225C48.354 611.775 33.5626 596.443 33.5626 577.532V60.71C33.5626 41.7986 48.2865 26.4668 66.5225 26.4668H90.3644C93.066 26.4668 95.2273 28.7632 95.2273 31.5324C95.2273 41.596 103.062 49.7684 112.788 49.7684H228.62C238.346 49.8359 246.181 41.6635 246.181 31.5324Z"
			stroke="#9FB4FF" stroke-width="0.675408" stroke-miterlimit="10" />
		<path
			d="M213.626 605.224H127.849C126.904 605.224 126.093 604.413 126.093 603.468C126.093 602.522 126.904 601.712 127.849 601.712H213.626C214.572 601.712 215.382 602.522 215.382 603.468C215.382 604.481 214.572 605.224 213.626 605.224Z"
			fill="#9FB4FF" />
	</g>
	<defs>
		<filter id="filter0_d" x="0.968178" y="0.984089" width="339.539" height="653.064" filterUnits="userSpaceOnUse"
			color-interpolation-filters="sRGB">
			<feFlood flood-opacity="0" result="BackgroundImageFix" />
			<feColorMatrix in="SourceAlpha" type="matrix" values="0 0 0 0 0 0 0 0 0 0 0 0 0 0 0 0 0 0 127 0" />
			<feOffset dy="10.0159" />
			<feGaussianBlur stdDeviation="10.0159" />
			<feColorMatrix type="matrix" values="0 0 0 0 0 0 0 0 0 0 0 0 0 0 0 0 0 0 0.3 0" />
			<feBlend mode="normal" in2="BackgroundImageFix" result="effect1_dropShadow" />
			<feBlend mode="normal" in="SourceGraphic" in2="effect1_dropShadow" result="shape" />
		</filter>
		<clipPath id="clip0">
			<rect width="299.476" height="613" fill="white" transform="translate(21 11)" />
		</clipPath>
	</defs>
</svg>