<svg width="1000" height="408" viewBox="0 0 1000 408" fill="none" xmlns="http://www.w3.org/2000/svg">
    <g clip-path="url(#clip0)">
        <path
            d="M31.4636 43.5454H122.891L200.448 232.665H204.028L281.584 43.5454H373.012V349H301.123V161.372H298.587L225.207 347.061H179.269L105.888 160.328H103.353V349H31.4636V43.5454ZM418.465 349V295.903L529.878 198.361C538.23 190.804 545.34 183.893 551.206 177.629C557.073 171.266 561.547 164.902 564.629 158.538C567.712 152.075 569.253 145.065 569.253 137.509C569.253 129.057 567.414 121.848 563.735 115.882C560.056 109.817 554.985 105.143 548.521 101.862C542.058 98.581 534.651 96.9403 526.298 96.9403C517.847 96.9403 510.439 98.6804 504.075 102.161C497.712 105.541 492.74 110.463 489.161 116.926C485.681 123.389 483.941 131.244 483.941 140.491H413.99C413.99 119.71 418.664 101.763 428.01 86.6492C437.357 71.5355 450.482 59.902 467.385 51.7486C484.388 43.4957 504.125 39.3693 526.597 39.3693C549.764 39.3693 569.899 43.2471 587.002 51.0028C604.104 58.7585 617.328 69.5966 626.675 83.517C636.121 97.3381 640.844 113.396 640.844 131.692C640.844 143.325 638.507 154.859 633.834 166.294C629.161 177.729 620.759 190.357 608.628 204.178C596.597 217.999 579.495 234.554 557.321 253.844L520.78 287.551V289.49H644.573V349H418.465ZM685.849 349V306.94L834.251 103.503H685.998V43.5454H927.618V85.6051L779.216 289.043H927.469V349H685.849Z"
            fill="white" fill-opacity="0.5" />
        <path
            d="M39.4636 51.5454H130.891L208.448 240.665H212.028L289.584 51.5454H381.012V357H309.123V169.372H306.587L233.207 355.061H187.269L113.888 168.328H111.353V357H39.4636V51.5454ZM426.465 357V303.903L537.878 206.361C546.23 198.804 553.34 191.893 559.206 185.629C565.073 179.266 569.547 172.902 572.629 166.538C575.712 160.075 577.253 153.065 577.253 145.509C577.253 137.057 575.414 129.848 571.735 123.882C568.056 117.817 562.985 113.143 556.521 109.862C550.058 106.581 542.651 104.94 534.298 104.94C525.847 104.94 518.439 106.68 512.075 110.161C505.712 113.541 500.74 118.463 497.161 124.926C493.681 131.389 491.941 139.244 491.941 148.491H421.99C421.99 127.71 426.664 109.763 436.01 94.6492C445.357 79.5355 458.482 67.902 475.385 59.7486C492.388 51.4957 512.125 47.3693 534.597 47.3693C557.764 47.3693 577.899 51.2471 595.002 59.0028C612.104 66.7585 625.328 77.5966 634.675 91.517C644.121 105.338 648.844 121.396 648.844 139.692C648.844 151.325 646.507 162.859 641.834 174.294C637.161 185.729 628.759 198.357 616.628 212.178C604.597 225.999 587.495 242.554 565.321 261.844L528.78 295.551V297.49H652.573V357H426.465ZM693.849 357V314.94L842.251 111.503H693.998V51.5454H935.618V93.6051L787.216 297.043H935.469V357H693.849Z"
            fill="white" fill-opacity="0.25" />
        <path
            d="M50.4636 62.5454H141.891L219.448 251.665H223.028L300.584 62.5454H392.012V368H320.123V180.372H317.587L244.207 366.061H198.269L124.888 179.328H122.353V368H50.4636V62.5454ZM437.465 368V314.903L548.878 217.361C557.23 209.804 564.34 202.893 570.206 196.629C576.073 190.266 580.547 183.902 583.629 177.538C586.712 171.075 588.253 164.065 588.253 156.509C588.253 148.057 586.414 140.848 582.735 134.882C579.056 128.817 573.985 124.143 567.521 120.862C561.058 117.581 553.651 115.94 545.298 115.94C536.847 115.94 529.439 117.68 523.075 121.161C516.712 124.541 511.74 129.463 508.161 135.926C504.681 142.389 502.941 150.244 502.941 159.491H432.99C432.99 138.71 437.664 120.763 447.01 105.649C456.357 90.5355 469.482 78.902 486.385 70.7486C503.388 62.4957 523.125 58.3693 545.597 58.3693C568.764 58.3693 588.899 62.2471 606.002 70.0028C623.104 77.7585 636.328 88.5966 645.675 102.517C655.121 116.338 659.844 132.396 659.844 150.692C659.844 162.325 657.507 173.859 652.834 185.294C648.161 196.729 639.759 209.357 627.628 223.178C615.597 236.999 598.495 253.554 576.321 272.844L539.78 306.551V308.49H663.573V368H437.465ZM704.849 368V325.94L853.251 122.503H704.998V62.5454H946.618V104.605L798.216 308.043H946.469V368H704.849Z"
            fill="white" />
    </g>
    <defs>
        <clipPath id="clip0">
            <rect width="1000" height="408" fill="white" />
        </clipPath>
    </defs>
</svg>