<svg width="8" height="14" viewBox="0 0 8 14" fill="none" xmlns="http://www.w3.org/2000/svg">
    <path
        d="M1.17187 13.6568C0.974116 13.6567 0.780818 13.598 0.616408 13.4882C0.451998 13.3783 0.323859 13.2221 0.248189 13.0394C0.172519 12.8567 0.152716 12.6557 0.191283 12.4617C0.229851 12.2678 0.325057 12.0896 0.464867 11.9498L5.41405 7.00002L0.464827 2.05031C0.277311 1.86279 0.171966 1.60846 0.171967 1.34328C0.171967 1.07809 0.277314 0.82376 0.464831 0.636244C0.652349 0.448728 0.906677 0.343383 1.17187 0.343384C1.43705 0.343385 1.69138 0.448731 1.8789 0.636249L7.53515 6.29302C7.62803 6.38585 7.7017 6.49607 7.75197 6.61739C7.80224 6.7387 7.82811 6.86873 7.82811 7.00005C7.82811 7.13137 7.80224 7.2614 7.75197 7.38271C7.7017 7.50402 7.62803 7.61425 7.53515 7.70708L1.8789 13.3638C1.78616 13.4568 1.67595 13.5306 1.55462 13.5808C1.43328 13.6311 1.30321 13.6569 1.17187 13.6568Z"
        fill="#0084ff" />
</svg>